<mxfile host="app.diagrams.net" agent="Mozilla/5.0 (Macintosh; Intel Mac OS X 10_15_7) AppleWebKit/605.1.15 (KHTML, like Gecko) Version/18.3.1 Safari/605.1.15" version="26.2.13">
  <diagram name="Page-1" id="OrWsHKG6hmdIoWG1Zg7K">
    <mxGraphModel dx="1429" dy="789" grid="1" gridSize="10" guides="1" tooltips="1" connect="1" arrows="1" fold="1" page="1" pageScale="1" pageWidth="850" pageHeight="1100" math="0" shadow="0">
      <root>
        <mxCell id="0" />
        <mxCell id="1" parent="0" />
        <mxCell id="Jytao5aZPMhJEhL-4iDB-3" style="edgeStyle=orthogonalEdgeStyle;rounded=0;orthogonalLoop=1;jettySize=auto;html=1;entryX=0;entryY=0.5;entryDx=0;entryDy=0;" edge="1" parent="1" source="Jytao5aZPMhJEhL-4iDB-1" target="Jytao5aZPMhJEhL-4iDB-2">
          <mxGeometry relative="1" as="geometry" />
        </mxCell>
        <mxCell id="Jytao5aZPMhJEhL-4iDB-16" value="Generates 10 CQs" style="edgeLabel;html=1;align=center;verticalAlign=middle;resizable=0;points=[];" vertex="1" connectable="0" parent="Jytao5aZPMhJEhL-4iDB-3">
          <mxGeometry x="0.0147" relative="1" as="geometry">
            <mxPoint as="offset" />
          </mxGeometry>
        </mxCell>
        <mxCell id="Jytao5aZPMhJEhL-4iDB-1" value="FineTuned LLM" style="rounded=1;whiteSpace=wrap;html=1;" vertex="1" parent="1">
          <mxGeometry x="120" y="250" width="120" height="60" as="geometry" />
        </mxCell>
        <mxCell id="Jytao5aZPMhJEhL-4iDB-8" style="edgeStyle=orthogonalEdgeStyle;rounded=0;orthogonalLoop=1;jettySize=auto;html=1;exitX=0.5;exitY=1;exitDx=0;exitDy=0;" edge="1" parent="1" source="Jytao5aZPMhJEhL-4iDB-2" target="Jytao5aZPMhJEhL-4iDB-7">
          <mxGeometry relative="1" as="geometry" />
        </mxCell>
        <mxCell id="Jytao5aZPMhJEhL-4iDB-9" value="3 critical questions" style="edgeLabel;html=1;align=center;verticalAlign=middle;resizable=0;points=[];" vertex="1" connectable="0" parent="Jytao5aZPMhJEhL-4iDB-8">
          <mxGeometry x="-0.0154" y="2" relative="1" as="geometry">
            <mxPoint as="offset" />
          </mxGeometry>
        </mxCell>
        <mxCell id="Jytao5aZPMhJEhL-4iDB-2" value="RankCQ" style="rounded=1;whiteSpace=wrap;html=1;" vertex="1" parent="1">
          <mxGeometry x="425" y="250" width="120" height="60" as="geometry" />
        </mxCell>
        <mxCell id="Jytao5aZPMhJEhL-4iDB-6" style="edgeStyle=orthogonalEdgeStyle;rounded=0;orthogonalLoop=1;jettySize=auto;html=1;exitX=0.5;exitY=1;exitDx=0;exitDy=0;exitPerimeter=0;" edge="1" parent="1" source="Jytao5aZPMhJEhL-4iDB-5" target="Jytao5aZPMhJEhL-4iDB-2">
          <mxGeometry relative="1" as="geometry" />
        </mxCell>
        <mxCell id="Jytao5aZPMhJEhL-4iDB-5" value="RAG DB" style="shape=cylinder3;whiteSpace=wrap;html=1;boundedLbl=1;backgroundOutline=1;size=15;" vertex="1" parent="1">
          <mxGeometry x="455" y="100" width="60" height="80" as="geometry" />
        </mxCell>
        <mxCell id="Jytao5aZPMhJEhL-4iDB-7" value="Output" style="rounded=1;whiteSpace=wrap;html=1;" vertex="1" parent="1">
          <mxGeometry x="425" y="380" width="120" height="60" as="geometry" />
        </mxCell>
        <mxCell id="Jytao5aZPMhJEhL-4iDB-11" style="edgeStyle=orthogonalEdgeStyle;rounded=0;orthogonalLoop=1;jettySize=auto;html=1;entryX=0.5;entryY=0;entryDx=0;entryDy=0;exitX=0.5;exitY=1;exitDx=0;exitDy=0;" edge="1" parent="1" source="Jytao5aZPMhJEhL-4iDB-13" target="Jytao5aZPMhJEhL-4iDB-1">
          <mxGeometry relative="1" as="geometry">
            <mxPoint x="180" y="130" as="sourcePoint" />
          </mxGeometry>
        </mxCell>
        <mxCell id="Jytao5aZPMhJEhL-4iDB-12" value="Input argument" style="edgeLabel;html=1;align=center;verticalAlign=middle;resizable=0;points=[];" vertex="1" connectable="0" parent="Jytao5aZPMhJEhL-4iDB-11">
          <mxGeometry x="0.0411" y="1" relative="1" as="geometry">
            <mxPoint as="offset" />
          </mxGeometry>
        </mxCell>
        <mxCell id="Jytao5aZPMhJEhL-4iDB-14" value="" style="group" vertex="1" connectable="0" parent="1">
          <mxGeometry x="150" y="20" width="60" height="100" as="geometry" />
        </mxCell>
        <mxCell id="Jytao5aZPMhJEhL-4iDB-13" value="" style="rounded=0;whiteSpace=wrap;html=1;" vertex="1" parent="Jytao5aZPMhJEhL-4iDB-14">
          <mxGeometry width="60" height="100" as="geometry" />
        </mxCell>
        <mxCell id="Jytao5aZPMhJEhL-4iDB-10" value="User" style="shape=umlActor;verticalLabelPosition=bottom;verticalAlign=top;html=1;outlineConnect=0;" vertex="1" parent="Jytao5aZPMhJEhL-4iDB-14">
          <mxGeometry x="17.142857142857142" y="10" width="25.71428571428571" height="60" as="geometry" />
        </mxCell>
      </root>
    </mxGraphModel>
  </diagram>
</mxfile>
